<svg width="26" height="26" viewBox="0 0 26 26" fill="none" xmlns="http://www.w3.org/2000/svg">
<path d="M13 26C9.96667 26 7.28241 25.0794 4.94722 23.2382C2.61204 21.397 1.09537 19.0435 0.397222 16.1778C0.300926 15.8167 0.373148 15.4859 0.613889 15.1854C0.854629 14.885 1.17963 14.7102 1.58889 14.6611C1.97407 14.613 2.32315 14.6852 2.63611 14.8778C2.94907 15.0704 3.16574 15.3593 3.28611 15.7444C3.86389 17.9111 5.05555 19.6805 6.86111 21.0528C8.66667 22.425 10.713 23.1111 13 23.1111C15.8167 23.1111 18.2063 22.1303 20.1688 20.1688C22.1313 18.2072 23.1121 15.8176 23.1111 13C23.1101 10.1824 22.1294 7.79326 20.1688 5.83266C18.2082 3.87207 15.8186 2.89081 13 2.88889C11.3389 2.88889 9.78611 3.27407 8.34167 4.04444C6.89722 4.81481 5.68148 5.87407 4.69444 7.22222H7.22222C7.63148 7.22222 7.97478 7.36089 8.25211 7.63822C8.52944 7.91555 8.66763 8.25837 8.66667 8.66666C8.6657 9.07496 8.52704 9.41826 8.25067 9.69655C7.9743 9.97485 7.63148 10.113 7.22222 10.1111H1.44444C1.03519 10.1111 0.69237 9.97244 0.416 9.69511C0.13963 9.41777 0.000962963 9.07496 0 8.66666V2.88889C0 2.47963 0.138667 2.13681 0.416 1.86044C0.693333 1.58407 1.03615 1.44541 1.44444 1.44444C1.85274 1.44348 2.19604 1.58215 2.47433 1.86044C2.75263 2.13874 2.89081 2.48155 2.88889 2.88889V4.83889C4.11667 3.29815 5.61552 2.10648 7.38544 1.26389C9.15537 0.421296 11.0269 0 13 0C14.8056 0 16.497 0.343296 18.0743 1.02989C19.6517 1.71648 21.0239 2.64285 22.191 3.809C23.3581 4.97515 24.285 6.34737 24.9716 7.92566C25.6581 9.50396 26.001 11.1954 26 13C25.999 14.8046 25.6562 16.496 24.9716 18.0743C24.2869 19.6526 23.36 21.0248 22.191 22.191C21.022 23.3571 19.6497 24.284 18.0743 24.9715C16.4989 25.6591 14.8075 26.0019 13 26ZM14.4444 12.4222L18.0556 16.0333C18.3204 16.2981 18.4528 16.6352 18.4528 17.0444C18.4528 17.4537 18.3204 17.7907 18.0556 18.0555C17.7907 18.3204 17.4537 18.4528 17.0444 18.4528C16.6352 18.4528 16.2981 18.3204 16.0333 18.0555L11.9889 14.0111C11.8444 13.8667 11.7361 13.7044 11.6639 13.5243C11.5917 13.3443 11.5556 13.1574 11.5556 12.9639V7.22222C11.5556 6.81296 11.6942 6.47015 11.9716 6.19378C12.2489 5.91741 12.5917 5.77874 13 5.77778C13.4083 5.77681 13.7516 5.91548 14.0299 6.19378C14.3082 6.47207 14.4464 6.81489 14.4444 7.22222V12.4222Z" fill="white"/>
</svg>
