<svg width="440" height="125" viewBox="0 0 440 125" fill="none" xmlns="http://www.w3.org/2000/svg">
<ellipse cx="23.5" cy="15.5" rx="46.5" ry="40.5" fill="#E6748E"/>
<path d="M369.205 23C381.964 23 392.867 28.1001 397.233 35.2959C398.669 35.1609 400.138 35.0908 401.632 35.0908C414.12 35.0908 424.829 39.9762 429.373 46.9307C447.292 49.7223 460 56.7294 460 64.9316C459.999 75.587 438.553 84.2246 412.097 84.2246C402.808 84.2246 394.136 83.1577 386.794 81.3145C378.611 83.9398 368.247 85.5107 356.972 85.5107C345.876 85.5107 335.662 83.9898 327.541 81.4395C322.444 83.9898 316.033 85.5107 309.068 85.5107C292.462 85.5107 279 76.8731 279 66.2178C279 55.5623 292.462 46.9238 309.068 46.9238C310.419 46.9238 311.75 46.982 313.054 47.0928C318.244 41.3035 327.981 37.4063 339.137 37.4062C339.461 37.4062 339.784 37.4095 340.105 37.416C343.473 29.122 355.225 23 369.205 23Z" fill="#A7BCBD"/>
<path d="M73.268 28C74.0378 26.6667 75.9622 26.6667 76.7321 28L87.1244 46C87.8942 47.3333 86.9319 49 85.3923 49H64.6077C63.0681 49 62.1058 47.3333 62.8756 46L73.268 28Z" fill="#D9D9D9"/>
<path d="M74.6447 -2.13556C74.5105 -3.66931 76.0869 -4.77315 77.4823 -4.12249L96.3196 4.66147C97.7149 5.31213 97.8826 7.22931 96.6215 8.11238L79.5957 20.0339C78.3345 20.917 76.5904 20.1037 76.4562 18.57L74.6447 -2.13556Z" fill="#D9D9D9"/>
<path d="M55.3214 51.6412C56.7167 50.9906 58.2932 52.0944 58.159 53.6281L56.3475 74.3337C56.2133 75.8674 54.4691 76.6807 53.208 75.7977L36.1822 63.8761C34.921 62.993 35.0888 61.0758 36.4841 60.4252L55.3214 51.6412Z" fill="#D9D9D9"/>
<path d="M26.2065 59.7751C27.7458 59.7483 28.737 61.3979 27.9906 62.7445L17.914 80.9231C17.1676 82.2696 15.2434 82.3032 14.4505 80.9835L3.7456 63.1676C2.95265 61.848 3.88567 60.1647 5.42503 60.1379L26.2065 59.7751Z" fill="#D9D9D9"/>
<path d="M39.0029 115C36.483 115 34.3352 116.36 33.5098 118.267C33.1644 118.174 32.7969 118.125 32.416 118.125C30.8866 118.125 29.5772 118.927 29.0303 120.064C27.8667 120.308 27 121.235 27 122.344C27 123.638 28.1796 124.687 29.6348 124.688C30.2352 124.688 30.7874 124.507 31.2305 124.206C31.6024 124.315 32.001 124.375 32.416 124.375C33.3687 124.375 34.2366 124.064 34.8877 123.555C35.9453 124.448 37.3983 125 39.0029 125C40.1989 125 41.3114 124.694 42.2383 124.168C42.9814 124.686 43.9476 125 45.0049 125C47.3494 125 49.25 123.461 49.25 121.562C49.25 119.664 47.3494 118.125 45.0049 118.125C44.8155 118.125 44.6291 118.136 44.4463 118.155C43.5865 116.307 41.4736 115 39.0029 115Z" fill="#A7BCBD"/>
<path d="M151.803 46C156.673 46 160.824 48.0399 162.419 50.9004C163.086 50.762 163.797 50.6875 164.533 50.6875C167.487 50.6876 170.016 51.8884 171.074 53.5928C173.324 53.9568 175 55.3511 175 57.0156C175 58.9572 172.72 60.5311 169.908 60.5312C168.747 60.5312 167.676 60.2625 166.819 59.8105C166.102 59.9729 165.333 60.0625 164.533 60.0625C162.692 60.0625 161.016 59.5958 159.758 58.832C157.714 60.1716 154.904 61 151.803 61C149.492 61 147.343 60.5393 145.552 59.751C144.116 60.5279 142.248 61 140.204 61C135.673 61 132 58.6915 132 55.8438C132 52.996 135.673 50.6875 140.204 50.6875C140.571 50.6875 140.931 50.7041 141.285 50.7334C142.947 47.9613 147.028 46 151.803 46Z" fill="#A7BCBD"/>
</svg>
