<svg width="166" height="43" viewBox="0 0 166 43" fill="none" xmlns="http://www.w3.org/2000/svg">
<mask id="path-1-outside-1_202_1560" maskUnits="userSpaceOnUse" x="-0.23999" y="-0.639999" width="166" height="43" fill="black">
<rect fill="white" x="-0.23999" y="-0.639999" width="166" height="43"/>
<path d="M7.40001 31.36C5.37334 31.36 3.80001 30.8267 2.68001 29.76C1.56001 28.6933 1.00001 27.2 1.00001 25.28V9.28C1.00001 7.41333 1.53334 5.96 2.60001 4.92C3.69334 3.88 5.20001 3.36 7.12001 3.36H16.36C19.4533 3.36 21.84 4.01333 23.52 5.32C25.2 6.62667 26.04 8.52 26.04 11C26.04 12.2267 25.68 13.3733 24.96 14.44C24.24 15.48 23.3067 16.2667 22.16 16.8V16.84C23.44 17.3467 24.48 18.16 25.28 19.28C26.1067 20.3733 26.52 21.56 26.52 22.84C26.52 25.5067 25.6533 27.6 23.92 29.12C22.2133 30.6133 19.8533 31.36 16.84 31.36H7.40001ZM16.36 14.92C17.72 14.92 18.7733 14.5867 19.52 13.92C20.2933 13.2533 20.68 12.2933 20.68 11.04C20.68 9.81333 20.32 8.90667 19.6 8.32C18.88 7.73333 17.8 7.44 16.36 7.44H7.96001C7.42668 7.44 7.00001 7.61333 6.68001 7.96C6.38668 8.30667 6.24001 8.78667 6.24001 9.4V14.92H16.36ZM16.36 27.28C19.56 27.28 21.16 25.8267 21.16 22.92C21.16 21.6667 20.7333 20.6933 19.88 20C19.0533 19.3067 17.88 18.96 16.36 18.96H6.24001V25.32C6.24001 25.9333 6.38668 26.4133 6.68001 26.76C7.00001 27.1067 7.42668 27.28 7.96001 27.28H16.36ZM41.7294 31.76C39.4094 31.76 37.3427 31.3467 35.5294 30.52C33.7427 29.6667 32.3427 28.4667 31.3294 26.92C30.3161 25.3733 29.8094 23.5867 29.8094 21.56C29.8094 19.5333 30.3161 17.7467 31.3294 16.2C32.3427 14.6533 33.7427 13.4667 35.5294 12.64C37.3427 11.7867 39.4094 11.36 41.7294 11.36C44.0494 11.36 46.1027 11.7867 47.8894 12.64C49.7027 13.4667 51.1161 14.6533 52.1294 16.2C53.1427 17.7467 53.6494 19.5333 53.6494 21.56C53.6494 23.5867 53.1427 25.3733 52.1294 26.92C51.1161 28.4667 49.7027 29.6667 47.8894 30.52C46.1027 31.3467 44.0494 31.76 41.7294 31.76ZM41.7294 27.6C43.7827 27.6 45.3961 27.0667 46.5694 26C47.7694 24.9333 48.3694 23.4533 48.3694 21.56C48.3694 19.6667 47.7694 18.1867 46.5694 17.12C45.3961 16.0533 43.7827 15.52 41.7294 15.52C39.6761 15.52 38.0494 16.0533 36.8494 17.12C35.6761 18.1867 35.0894 19.6667 35.0894 21.56C35.0894 23.4533 35.6761 24.9333 36.8494 26C38.0494 27.0667 39.6761 27.6 41.7294 27.6ZM67.4325 31.76C65.1125 31.76 63.0458 31.3467 61.2325 30.52C59.4458 29.6667 58.0458 28.4667 57.0325 26.92C56.0192 25.3733 55.5125 23.5867 55.5125 21.56C55.5125 19.5333 56.0192 17.7467 57.0325 16.2C58.0458 14.6533 59.4458 13.4667 61.2325 12.64C63.0458 11.7867 65.1125 11.36 67.4325 11.36C69.7525 11.36 71.8058 11.7867 73.5925 12.64C75.4058 13.4667 76.8192 14.6533 77.8325 16.2C78.8458 17.7467 79.3525 19.5333 79.3525 21.56C79.3525 23.5867 78.8458 25.3733 77.8325 26.92C76.8192 28.4667 75.4058 29.6667 73.5925 30.52C71.8058 31.3467 69.7525 31.76 67.4325 31.76ZM67.4325 27.6C69.4858 27.6 71.0992 27.0667 72.2725 26C73.4725 24.9333 74.0725 23.4533 74.0725 21.56C74.0725 19.6667 73.4725 18.1867 72.2725 17.12C71.0992 16.0533 69.4858 15.52 67.4325 15.52C65.3792 15.52 63.7525 16.0533 62.5525 17.12C61.3792 18.1867 60.7925 19.6667 60.7925 21.56C60.7925 23.4533 61.3792 24.9333 62.5525 26C63.7525 27.0667 65.3792 27.6 67.4325 27.6ZM85.2313 31.76C84.4046 31.76 83.7646 31.5467 83.3113 31.12C82.8579 30.6933 82.6313 30.1067 82.6313 29.36V3.4C82.6313 2.65333 82.8579 2.06667 83.3113 1.64C83.7646 1.21333 84.4046 0.999998 85.2313 0.999998C86.0313 0.999998 86.6713 1.21333 87.1513 1.64C87.6313 2.06667 87.8713 2.65333 87.8713 3.4V19.32L99.5513 11.8C100.138 11.4267 100.671 11.24 101.151 11.24C101.925 11.24 102.485 11.6 102.831 12.32C103.045 12.8 103.151 13.2 103.151 13.52C103.151 14.2133 102.738 14.8133 101.911 15.32L95.7113 19.16C98.0579 20.5733 99.8046 22.0667 100.951 23.64C102.125 25.2133 102.845 27.0667 103.111 29.2C103.138 29.3067 103.151 29.4667 103.151 29.68C103.151 30.3467 102.951 30.8667 102.551 31.24C102.178 31.5867 101.645 31.76 100.951 31.76C100.231 31.76 99.6313 31.6133 99.1513 31.32C98.6979 31.0267 98.4046 30.6 98.2713 30.04C97.8713 28.4933 97.4179 27.24 96.9113 26.28C96.4313 25.32 95.7913 24.4933 94.9913 23.8C94.2179 23.08 93.1646 22.3467 91.8313 21.6L87.8713 24.32V29.36C87.8713 30.1067 87.6313 30.6933 87.1513 31.12C86.6713 31.5467 86.0313 31.76 85.2313 31.76ZM109.7 8.88C108.714 8.88 107.914 8.61333 107.3 8.08C106.714 7.52 106.42 6.8 106.42 5.92C106.42 5.04 106.714 4.33333 107.3 3.8C107.914 3.24 108.714 2.96 109.7 2.96C110.687 2.96 111.487 3.24 112.1 3.8C112.74 4.33333 113.06 5.04 113.06 5.92C113.06 6.8 112.74 7.52 112.1 8.08C111.487 8.61333 110.687 8.88 109.7 8.88ZM109.74 31.76C108.914 31.76 108.274 31.5467 107.82 31.12C107.367 30.6933 107.14 30.1067 107.14 29.36V13.76C107.14 13.0133 107.367 12.4267 107.82 12C108.274 11.5733 108.914 11.36 109.74 11.36C110.54 11.36 111.18 11.5733 111.66 12C112.14 12.4267 112.38 13.0133 112.38 13.76V29.36C112.38 30.1067 112.14 30.6933 111.66 31.12C111.18 31.5467 110.54 31.76 109.74 31.76ZM119.333 31.76C118.506 31.76 117.866 31.5467 117.413 31.12C116.959 30.6933 116.733 30.1067 116.733 29.36V13.76C116.733 12.9867 116.946 12.4 117.373 12C117.826 11.5733 118.453 11.36 119.253 11.36C120.053 11.36 120.679 11.5733 121.133 12C121.586 12.4267 121.813 13.0133 121.813 13.76V14.92C123.706 12.5467 126.293 11.36 129.573 11.36C132.133 11.36 134.146 12.1733 135.613 13.8C137.106 15.4 137.853 17.5867 137.853 20.36V29.36C137.853 30.1067 137.613 30.6933 137.133 31.12C136.653 31.5467 136.013 31.76 135.213 31.76C134.386 31.76 133.746 31.5467 133.293 31.12C132.839 30.6933 132.613 30.1067 132.613 29.36V20.36C132.613 18.84 132.239 17.6533 131.493 16.8C130.746 15.9467 129.706 15.52 128.373 15.52C126.346 15.52 124.773 16.12 123.653 17.32C122.533 18.4933 121.973 20.1467 121.973 22.28V29.36C121.973 30.1067 121.733 30.6933 121.253 31.12C120.773 31.5467 120.133 31.76 119.333 31.76ZM152.862 41.36C150.782 41.36 148.862 41.0533 147.102 40.44C145.369 39.8267 144.009 38.9867 143.022 37.92C142.649 37.52 142.462 37.0667 142.462 36.56C142.462 35.8933 142.782 35.2933 143.422 34.76C143.822 34.44 144.249 34.28 144.702 34.28C145.396 34.28 146.169 34.6667 147.022 35.44C147.662 36.0267 148.462 36.48 149.422 36.8C150.409 37.1467 151.462 37.32 152.582 37.32C154.662 37.32 156.276 36.6933 157.422 35.44C158.569 34.1867 159.116 32.4533 159.062 30.24L159.022 28.64C158.116 29.7067 157.049 30.4933 155.822 31C154.622 31.5067 153.142 31.76 151.382 31.76C148.102 31.76 145.542 30.8667 143.702 29.08C141.862 27.2667 140.942 24.76 140.942 21.56C140.942 18.36 141.876 15.8667 143.742 14.08C145.636 12.2667 148.262 11.36 151.622 11.36C153.009 11.36 154.342 11.64 155.622 12.2C156.902 12.76 158.049 13.5467 159.062 14.56V13.76C159.062 13.0133 159.302 12.4267 159.782 12C160.262 11.5733 160.902 11.36 161.702 11.36C162.502 11.36 163.129 11.5733 163.582 12C164.062 12.4 164.302 12.9867 164.302 13.76V30.24C164.302 32.3733 163.836 34.28 162.902 35.96C161.996 37.64 160.676 38.96 158.942 39.92C157.236 40.88 155.209 41.36 152.862 41.36ZM152.422 27.6C154.502 27.6 156.129 27.0667 157.302 26C158.476 24.9333 159.062 23.4533 159.062 21.56C159.062 19.6667 158.476 18.1867 157.302 17.12C156.129 16.0533 154.502 15.52 152.422 15.52C150.476 15.52 148.956 16.0533 147.862 17.12C146.769 18.1867 146.222 19.6667 146.222 21.56C146.222 23.4533 146.769 24.9333 147.862 26C148.956 27.0667 150.476 27.6 152.422 27.6Z"/>
</mask>
<path d="M7.40001 31.36C5.37334 31.36 3.80001 30.8267 2.68001 29.76C1.56001 28.6933 1.00001 27.2 1.00001 25.28V9.28C1.00001 7.41333 1.53334 5.96 2.60001 4.92C3.69334 3.88 5.20001 3.36 7.12001 3.36H16.36C19.4533 3.36 21.84 4.01333 23.52 5.32C25.2 6.62667 26.04 8.52 26.04 11C26.04 12.2267 25.68 13.3733 24.96 14.44C24.24 15.48 23.3067 16.2667 22.16 16.8V16.84C23.44 17.3467 24.48 18.16 25.28 19.28C26.1067 20.3733 26.52 21.56 26.52 22.84C26.52 25.5067 25.6533 27.6 23.92 29.12C22.2133 30.6133 19.8533 31.36 16.84 31.36H7.40001ZM16.36 14.92C17.72 14.92 18.7733 14.5867 19.52 13.92C20.2933 13.2533 20.68 12.2933 20.68 11.04C20.68 9.81333 20.32 8.90667 19.6 8.32C18.88 7.73333 17.8 7.44 16.36 7.44H7.96001C7.42668 7.44 7.00001 7.61333 6.68001 7.96C6.38668 8.30667 6.24001 8.78667 6.24001 9.4V14.92H16.36ZM16.36 27.28C19.56 27.28 21.16 25.8267 21.16 22.92C21.16 21.6667 20.7333 20.6933 19.88 20C19.0533 19.3067 17.88 18.96 16.36 18.96H6.24001V25.32C6.24001 25.9333 6.38668 26.4133 6.68001 26.76C7.00001 27.1067 7.42668 27.28 7.96001 27.28H16.36ZM41.7294 31.76C39.4094 31.76 37.3427 31.3467 35.5294 30.52C33.7427 29.6667 32.3427 28.4667 31.3294 26.92C30.3161 25.3733 29.8094 23.5867 29.8094 21.56C29.8094 19.5333 30.3161 17.7467 31.3294 16.2C32.3427 14.6533 33.7427 13.4667 35.5294 12.64C37.3427 11.7867 39.4094 11.36 41.7294 11.36C44.0494 11.36 46.1027 11.7867 47.8894 12.64C49.7027 13.4667 51.1161 14.6533 52.1294 16.2C53.1427 17.7467 53.6494 19.5333 53.6494 21.56C53.6494 23.5867 53.1427 25.3733 52.1294 26.92C51.1161 28.4667 49.7027 29.6667 47.8894 30.52C46.1027 31.3467 44.0494 31.76 41.7294 31.76ZM41.7294 27.6C43.7827 27.6 45.3961 27.0667 46.5694 26C47.7694 24.9333 48.3694 23.4533 48.3694 21.56C48.3694 19.6667 47.7694 18.1867 46.5694 17.12C45.3961 16.0533 43.7827 15.52 41.7294 15.52C39.6761 15.52 38.0494 16.0533 36.8494 17.12C35.6761 18.1867 35.0894 19.6667 35.0894 21.56C35.0894 23.4533 35.6761 24.9333 36.8494 26C38.0494 27.0667 39.6761 27.6 41.7294 27.6ZM67.4325 31.76C65.1125 31.76 63.0458 31.3467 61.2325 30.52C59.4458 29.6667 58.0458 28.4667 57.0325 26.92C56.0192 25.3733 55.5125 23.5867 55.5125 21.56C55.5125 19.5333 56.0192 17.7467 57.0325 16.2C58.0458 14.6533 59.4458 13.4667 61.2325 12.64C63.0458 11.7867 65.1125 11.36 67.4325 11.36C69.7525 11.36 71.8058 11.7867 73.5925 12.64C75.4058 13.4667 76.8192 14.6533 77.8325 16.2C78.8458 17.7467 79.3525 19.5333 79.3525 21.56C79.3525 23.5867 78.8458 25.3733 77.8325 26.92C76.8192 28.4667 75.4058 29.6667 73.5925 30.52C71.8058 31.3467 69.7525 31.76 67.4325 31.76ZM67.4325 27.6C69.4858 27.6 71.0992 27.0667 72.2725 26C73.4725 24.9333 74.0725 23.4533 74.0725 21.56C74.0725 19.6667 73.4725 18.1867 72.2725 17.12C71.0992 16.0533 69.4858 15.52 67.4325 15.52C65.3792 15.52 63.7525 16.0533 62.5525 17.12C61.3792 18.1867 60.7925 19.6667 60.7925 21.56C60.7925 23.4533 61.3792 24.9333 62.5525 26C63.7525 27.0667 65.3792 27.6 67.4325 27.6ZM85.2313 31.76C84.4046 31.76 83.7646 31.5467 83.3113 31.12C82.8579 30.6933 82.6313 30.1067 82.6313 29.36V3.4C82.6313 2.65333 82.8579 2.06667 83.3113 1.64C83.7646 1.21333 84.4046 0.999998 85.2313 0.999998C86.0313 0.999998 86.6713 1.21333 87.1513 1.64C87.6313 2.06667 87.8713 2.65333 87.8713 3.4V19.32L99.5513 11.8C100.138 11.4267 100.671 11.24 101.151 11.24C101.925 11.24 102.485 11.6 102.831 12.32C103.045 12.8 103.151 13.2 103.151 13.52C103.151 14.2133 102.738 14.8133 101.911 15.32L95.7113 19.16C98.0579 20.5733 99.8046 22.0667 100.951 23.64C102.125 25.2133 102.845 27.0667 103.111 29.2C103.138 29.3067 103.151 29.4667 103.151 29.68C103.151 30.3467 102.951 30.8667 102.551 31.24C102.178 31.5867 101.645 31.76 100.951 31.76C100.231 31.76 99.6313 31.6133 99.1513 31.32C98.6979 31.0267 98.4046 30.6 98.2713 30.04C97.8713 28.4933 97.4179 27.24 96.9113 26.28C96.4313 25.32 95.7913 24.4933 94.9913 23.8C94.2179 23.08 93.1646 22.3467 91.8313 21.6L87.8713 24.32V29.36C87.8713 30.1067 87.6313 30.6933 87.1513 31.12C86.6713 31.5467 86.0313 31.76 85.2313 31.76ZM109.7 8.88C108.714 8.88 107.914 8.61333 107.3 8.08C106.714 7.52 106.42 6.8 106.42 5.92C106.42 5.04 106.714 4.33333 107.3 3.8C107.914 3.24 108.714 2.96 109.7 2.96C110.687 2.96 111.487 3.24 112.1 3.8C112.74 4.33333 113.06 5.04 113.06 5.92C113.06 6.8 112.74 7.52 112.1 8.08C111.487 8.61333 110.687 8.88 109.7 8.88ZM109.74 31.76C108.914 31.76 108.274 31.5467 107.82 31.12C107.367 30.6933 107.14 30.1067 107.14 29.36V13.76C107.14 13.0133 107.367 12.4267 107.82 12C108.274 11.5733 108.914 11.36 109.74 11.36C110.54 11.36 111.18 11.5733 111.66 12C112.14 12.4267 112.38 13.0133 112.38 13.76V29.36C112.38 30.1067 112.14 30.6933 111.66 31.12C111.18 31.5467 110.54 31.76 109.74 31.76ZM119.333 31.76C118.506 31.76 117.866 31.5467 117.413 31.12C116.959 30.6933 116.733 30.1067 116.733 29.36V13.76C116.733 12.9867 116.946 12.4 117.373 12C117.826 11.5733 118.453 11.36 119.253 11.36C120.053 11.36 120.679 11.5733 121.133 12C121.586 12.4267 121.813 13.0133 121.813 13.76V14.92C123.706 12.5467 126.293 11.36 129.573 11.36C132.133 11.36 134.146 12.1733 135.613 13.8C137.106 15.4 137.853 17.5867 137.853 20.36V29.36C137.853 30.1067 137.613 30.6933 137.133 31.12C136.653 31.5467 136.013 31.76 135.213 31.76C134.386 31.76 133.746 31.5467 133.293 31.12C132.839 30.6933 132.613 30.1067 132.613 29.36V20.36C132.613 18.84 132.239 17.6533 131.493 16.8C130.746 15.9467 129.706 15.52 128.373 15.52C126.346 15.52 124.773 16.12 123.653 17.32C122.533 18.4933 121.973 20.1467 121.973 22.28V29.36C121.973 30.1067 121.733 30.6933 121.253 31.12C120.773 31.5467 120.133 31.76 119.333 31.76ZM152.862 41.36C150.782 41.36 148.862 41.0533 147.102 40.44C145.369 39.8267 144.009 38.9867 143.022 37.92C142.649 37.52 142.462 37.0667 142.462 36.56C142.462 35.8933 142.782 35.2933 143.422 34.76C143.822 34.44 144.249 34.28 144.702 34.28C145.396 34.28 146.169 34.6667 147.022 35.44C147.662 36.0267 148.462 36.48 149.422 36.8C150.409 37.1467 151.462 37.32 152.582 37.32C154.662 37.32 156.276 36.6933 157.422 35.44C158.569 34.1867 159.116 32.4533 159.062 30.24L159.022 28.64C158.116 29.7067 157.049 30.4933 155.822 31C154.622 31.5067 153.142 31.76 151.382 31.76C148.102 31.76 145.542 30.8667 143.702 29.08C141.862 27.2667 140.942 24.76 140.942 21.56C140.942 18.36 141.876 15.8667 143.742 14.08C145.636 12.2667 148.262 11.36 151.622 11.36C153.009 11.36 154.342 11.64 155.622 12.2C156.902 12.76 158.049 13.5467 159.062 14.56V13.76C159.062 13.0133 159.302 12.4267 159.782 12C160.262 11.5733 160.902 11.36 161.702 11.36C162.502 11.36 163.129 11.5733 163.582 12C164.062 12.4 164.302 12.9867 164.302 13.76V30.24C164.302 32.3733 163.836 34.28 162.902 35.96C161.996 37.64 160.676 38.96 158.942 39.92C157.236 40.88 155.209 41.36 152.862 41.36ZM152.422 27.6C154.502 27.6 156.129 27.0667 157.302 26C158.476 24.9333 159.062 23.4533 159.062 21.56C159.062 19.6667 158.476 18.1867 157.302 17.12C156.129 16.0533 154.502 15.52 152.422 15.52C150.476 15.52 148.956 16.0533 147.862 17.12C146.769 18.1867 146.222 19.6667 146.222 21.56C146.222 23.4533 146.769 24.9333 147.862 26C148.956 27.0667 150.476 27.6 152.422 27.6Z" fill="#EDECDB"/>
<path d="M2.68001 29.76L3.36967 29.0359V29.0359L2.68001 29.76ZM2.60001 4.92L1.91074 4.19539L1.90191 4.204L2.60001 4.92ZM23.52 5.32L22.9061 6.10935H22.9061L23.52 5.32ZM24.96 14.44L25.7823 15.0093L25.7889 14.9995L24.96 14.44ZM22.16 16.8L21.7383 15.8933L21.16 16.1622V16.8H22.16ZM22.16 16.84H21.16V17.5197L21.792 17.7698L22.16 16.84ZM25.28 19.28L24.4663 19.8612L24.4742 19.8723L24.4824 19.8831L25.28 19.28ZM23.92 29.12L24.5785 29.8726L24.5793 29.8719L23.92 29.12ZM19.52 13.92L18.8671 13.1626L18.8605 13.1683L18.854 13.1741L19.52 13.92ZM6.68001 7.96L5.94521 7.28172L5.93057 7.29758L5.91662 7.31406L6.68001 7.96ZM6.24001 14.92H5.24001V15.92H6.24001V14.92ZM19.88 20L19.2374 20.7662L19.2434 20.7712L19.2494 20.7761L19.88 20ZM6.24001 18.96V17.96H5.24001V18.96H6.24001ZM6.68001 26.76L5.91662 27.4059L5.93057 27.4224L5.94521 27.4383L6.68001 26.76ZM7.40001 31.36V30.36C5.5479 30.36 4.25167 29.8759 3.36967 29.0359L2.68001 29.76L1.99035 30.4841C3.34835 31.7775 5.19879 32.36 7.40001 32.36V31.36ZM2.68001 29.76L3.36967 29.0359C2.49367 28.2016 2.00001 26.9968 2.00001 25.28H1.00001H9.77516e-06C9.77516e-06 27.4032 0.626351 29.1851 1.99035 30.4841L2.68001 29.76ZM1.00001 25.28H2.00001V9.28H1.00001H9.77516e-06V25.28H1.00001ZM1.00001 9.28H2.00001C2.00001 7.61066 2.47073 6.44269 3.29811 5.636L2.60001 4.92L1.90191 4.204C0.595954 5.47731 9.77516e-06 7.21601 9.77516e-06 9.28H1.00001ZM2.60001 4.92L3.28922 5.64456C4.14986 4.8259 5.38375 4.36 7.12001 4.36V3.36V2.36C5.01627 2.36 3.23683 2.9341 1.9108 4.19544L2.60001 4.92ZM7.12001 3.36V4.36H16.36V3.36V2.36H7.12001V3.36ZM16.36 3.36V4.36C19.3284 4.36 21.4655 4.98892 22.9061 6.10935L23.52 5.32L24.134 4.53065C22.2145 3.03774 19.5783 2.36 16.36 2.36V3.36ZM23.52 5.32L22.9061 6.10935C24.3005 7.19387 25.04 8.77112 25.04 11H26.04H27.04C27.04 8.26888 26.0996 6.05946 24.134 4.53065L23.52 5.32ZM26.04 11H25.04C25.04 12.0172 24.7454 12.9705 24.1312 13.8805L24.96 14.44L25.7889 14.9995C26.6146 13.7761 27.04 12.4362 27.04 11H26.04ZM24.96 14.44L24.1378 13.8708C23.5189 14.7647 22.7238 15.4349 21.7383 15.8933L22.16 16.8L22.5817 17.7067C23.8895 17.0984 24.9611 16.1953 25.7822 15.0092L24.96 14.44ZM22.16 16.8H21.16V16.84H22.16H23.16V16.8H22.16ZM22.16 16.84L21.792 17.7698C22.893 18.2056 23.7782 18.8979 24.4663 19.8612L25.28 19.28L26.0937 18.6988C25.1818 17.4221 23.987 16.4877 22.5281 15.9102L22.16 16.84ZM25.28 19.28L24.4824 19.8831C25.1876 20.8159 25.52 21.7936 25.52 22.84H26.52H27.52C27.52 21.3264 27.0257 19.9308 26.0777 18.6769L25.28 19.28ZM26.52 22.84H25.52C25.52 25.2686 24.7426 27.0686 23.2607 28.3681L23.92 29.12L24.5793 29.8719C26.5641 28.1314 27.52 25.7447 27.52 22.84H26.52ZM23.92 29.12L23.2615 28.3674C21.7899 29.6551 19.6919 30.36 16.84 30.36V31.36V32.36C20.0148 32.36 22.6368 31.5716 24.5785 29.8726L23.92 29.12ZM16.84 31.36V30.36H7.40001V31.36V32.36H16.84V31.36ZM16.36 14.92V15.92C17.8768 15.92 19.1991 15.5471 20.186 14.6659L19.52 13.92L18.854 13.1741C18.3475 13.6262 17.5633 13.92 16.36 13.92V14.92ZM19.52 13.92L20.173 14.6774C21.2159 13.7783 21.68 12.5122 21.68 11.04H20.68H19.68C19.68 12.0745 19.3708 12.7284 18.8671 13.1626L19.52 13.92ZM20.68 11.04H21.68C21.68 9.6161 21.2546 8.37822 20.2317 7.54476L19.6 8.32L18.9683 9.09523C19.3855 9.43511 19.68 10.0106 19.68 11.04H20.68ZM19.6 8.32L20.2317 7.54476C19.2583 6.75164 17.9101 6.44 16.36 6.44V7.44V8.44C17.6899 8.44 18.5017 8.71502 18.9683 9.09523L19.6 8.32ZM16.36 7.44V6.44H7.96001V7.44V8.44H16.36V7.44ZM7.96001 7.44V6.44C7.18778 6.44 6.48016 6.70218 5.94521 7.28172L6.68001 7.96L7.41481 8.63828C7.51986 8.52448 7.66557 8.44 7.96001 8.44V7.44ZM6.68001 7.96L5.91662 7.31406C5.4242 7.89601 5.24001 8.63339 5.24001 9.4H6.24001H7.24001C7.24001 8.93995 7.34915 8.71732 7.4434 8.60594L6.68001 7.96ZM6.24001 9.4H5.24001V14.92H6.24001H7.24001V9.4H6.24001ZM6.24001 14.92V15.92H16.36V14.92V13.92H6.24001V14.92ZM16.36 27.28V28.28C18.0916 28.28 19.577 27.8888 20.6324 26.9302C21.706 25.955 22.16 24.5536 22.16 22.92H21.16H20.16C20.16 24.1931 19.814 24.9716 19.2876 25.4498C18.743 25.9445 17.8284 26.28 16.36 26.28V27.28ZM21.16 22.92H22.16C22.16 21.413 21.6321 20.1351 20.5106 19.2239L19.88 20L19.2494 20.7761C19.8346 21.2515 20.16 21.9204 20.16 22.92H21.16ZM19.88 20L20.5226 19.2338C19.4546 18.338 18.0202 17.96 16.36 17.96V18.96V19.96C17.7398 19.96 18.6521 20.2753 19.2374 20.7662L19.88 20ZM16.36 18.96V17.96H6.24001V18.96V19.96H16.36V18.96ZM6.24001 18.96H5.24001V25.32H6.24001H7.24001V18.96H6.24001ZM6.24001 25.32H5.24001C5.24001 26.0866 5.4242 26.824 5.91662 27.4059L6.68001 26.76L7.4434 26.1141C7.34915 26.0027 7.24001 25.7801 7.24001 25.32H6.24001ZM6.68001 26.76L5.94521 27.4383C6.48016 28.0178 7.18779 28.28 7.96001 28.28V27.28V26.28C7.66557 26.28 7.51986 26.1955 7.41481 26.0817L6.68001 26.76ZM7.96001 27.28V28.28H16.36V27.28V26.28H7.96001V27.28ZM35.5294 30.52L35.0984 31.4224L35.1065 31.4262L35.1146 31.4299L35.5294 30.52ZM31.3294 26.92L30.4929 27.468V27.468L31.3294 26.92ZM31.3294 16.2L30.4929 15.652V15.652L31.3294 16.2ZM35.5294 12.64L35.9493 13.5476L35.9552 13.5448L35.5294 12.64ZM47.8894 12.64L47.4584 13.5424L47.4665 13.5462L47.4746 13.5499L47.8894 12.64ZM47.8894 30.52L48.3093 31.4276L48.3152 31.4248L47.8894 30.52ZM46.5694 26L45.905 25.2525L45.8967 25.2601L46.5694 26ZM46.5694 17.12L45.8967 17.86L45.905 17.8674L46.5694 17.12ZM36.8494 17.12L36.185 16.3725L36.1767 16.3801L36.8494 17.12ZM36.8494 26L36.1767 26.74L36.185 26.7474L36.8494 26ZM41.7294 31.76V30.76C39.5292 30.76 37.6076 30.3684 35.9442 29.6101L35.5294 30.52L35.1146 31.4299C37.0778 32.3249 39.2896 32.76 41.7294 32.76V31.76ZM35.5294 30.52L35.9604 29.6176C34.3266 28.8373 33.0718 27.7548 32.1658 26.372L31.3294 26.92L30.4929 27.468C31.6136 29.1785 33.1589 30.496 35.0984 31.4224L35.5294 30.52ZM31.3294 26.92L32.1658 26.372C31.2694 25.0037 30.8094 23.4114 30.8094 21.56H29.8094H28.8094C28.8094 23.7619 29.3627 25.743 30.4929 27.468L31.3294 26.92ZM29.8094 21.56H30.8094C30.8094 19.7086 31.2694 18.1163 32.1658 16.748L31.3294 16.2L30.4929 15.652C29.3627 17.3771 28.8094 19.3581 28.8094 21.56H29.8094ZM31.3294 16.2L32.1658 16.748C33.07 15.368 34.3209 14.301 35.9493 13.5476L35.5294 12.64L35.1095 11.7324C33.1645 12.6323 31.6155 13.9386 30.4929 15.652L31.3294 16.2ZM35.5294 12.64L35.9552 13.5448C37.6159 12.7633 39.5335 12.36 41.7294 12.36V11.36V10.36C39.2853 10.36 37.0696 10.81 35.1036 11.7352L35.5294 12.64ZM41.7294 11.36V12.36C43.9257 12.36 45.8275 12.7634 47.4584 13.5424L47.8894 12.64L48.3204 11.7376C46.3779 10.8099 44.1731 10.36 41.7294 10.36V11.36ZM47.8894 12.64L47.4746 13.5499C49.1299 14.3046 50.3912 15.3717 51.2929 16.748L52.1294 16.2L52.9658 15.652C51.8409 13.9349 50.2755 12.6288 48.3042 11.7301L47.8894 12.64ZM52.1294 16.2L51.2929 16.748C52.1894 18.1163 52.6494 19.7086 52.6494 21.56H53.6494H54.6494C54.6494 19.3581 54.0961 17.3771 52.9658 15.652L52.1294 16.2ZM53.6494 21.56H52.6494C52.6494 23.4114 52.1894 25.0037 51.2929 26.372L52.1294 26.92L52.9658 27.468C54.0961 25.743 54.6494 23.7619 54.6494 21.56H53.6494ZM52.1294 26.92L51.2929 26.372C50.3893 27.7511 49.1242 28.8337 47.4636 29.6152L47.8894 30.52L48.3152 31.4248C50.2812 30.4996 51.8428 29.1822 52.9658 27.468L52.1294 26.92ZM47.8894 30.52L47.4695 29.6124C45.8358 30.3683 43.93 30.76 41.7294 30.76V31.76V32.76C44.1688 32.76 46.3696 32.325 48.3093 31.4276L47.8894 30.52ZM41.7294 27.6V28.6C43.956 28.6 45.8355 28.0186 47.2421 26.7399L46.5694 26L45.8967 25.2601C44.9566 26.1147 43.6094 26.6 41.7294 26.6V27.6ZM46.5694 26L47.2337 26.7474C48.6859 25.4566 49.3694 23.6828 49.3694 21.56H48.3694H47.3694C47.3694 23.2239 46.8529 24.4101 45.905 25.2526L46.5694 26ZM48.3694 21.56H49.3694C49.3694 19.4372 48.6859 17.6634 47.2337 16.3726L46.5694 17.12L45.905 17.8674C46.8529 18.7099 47.3694 19.8961 47.3694 21.56H48.3694ZM46.5694 17.12L47.2421 16.3801C45.8355 15.1014 43.956 14.52 41.7294 14.52V15.52V16.52C43.6094 16.52 44.9566 17.0053 45.8967 17.8599L46.5694 17.12ZM41.7294 15.52V14.52C39.5015 14.52 37.6146 15.1019 36.185 16.3726L36.8494 17.12L37.5137 17.8674C38.4842 17.0048 39.8506 16.52 41.7294 16.52V15.52ZM36.8494 17.12L36.1767 16.3801C34.7546 17.6729 34.0894 19.4444 34.0894 21.56H35.0894H36.0894C36.0894 19.8889 36.5975 18.7004 37.5221 17.8599L36.8494 17.12ZM35.0894 21.56H34.0894C34.0894 23.6756 34.7546 25.4471 36.1767 26.7399L36.8494 26L37.5221 25.2601C36.5975 24.4196 36.0894 23.2311 36.0894 21.56H35.0894ZM36.8494 26L36.185 26.7474C37.6146 28.0181 39.5015 28.6 41.7294 28.6V27.6V26.6C39.8506 26.6 38.4842 26.1152 37.5137 25.2526L36.8494 26ZM61.2325 30.52L60.8015 31.4224L60.8096 31.4262L60.8177 31.4299L61.2325 30.52ZM57.0325 26.92L56.196 27.468V27.468L57.0325 26.92ZM57.0325 16.2L56.196 15.652V15.652L57.0325 16.2ZM61.2325 12.64L61.6524 13.5476L61.6583 13.5448L61.2325 12.64ZM73.5925 12.64L73.1615 13.5424L73.1696 13.5462L73.1777 13.5499L73.5925 12.64ZM73.5925 30.52L74.0124 31.4276L74.0183 31.4248L73.5925 30.52ZM72.2725 26L71.6081 25.2525L71.5998 25.2601L72.2725 26ZM72.2725 17.12L71.5998 17.86L71.6081 17.8674L72.2725 17.12ZM62.5525 17.12L61.8881 16.3725L61.8798 16.3801L62.5525 17.12ZM62.5525 26L61.8798 26.74L61.8881 26.7474L62.5525 26ZM67.4325 31.76V30.76C65.2323 30.76 63.3108 30.3684 61.6473 29.6101L61.2325 30.52L60.8177 31.4299C62.7809 32.3249 64.9927 32.76 67.4325 32.76V31.76ZM61.2325 30.52L61.6635 29.6176C60.0297 28.8373 58.775 27.7548 57.869 26.372L57.0325 26.92L56.196 27.468C57.3167 29.1785 58.862 30.496 60.8015 31.4224L61.2325 30.52ZM57.0325 26.92L57.869 26.372C56.9725 25.0037 56.5125 23.4114 56.5125 21.56H55.5125H54.5125C54.5125 23.7619 55.0658 25.743 56.196 27.468L57.0325 26.92ZM55.5125 21.56H56.5125C56.5125 19.7086 56.9725 18.1163 57.869 16.748L57.0325 16.2L56.196 15.652C55.0658 17.3771 54.5125 19.3581 54.5125 21.56H55.5125ZM57.0325 16.2L57.869 16.748C58.7731 15.368 60.024 14.301 61.6524 13.5476L61.2325 12.64L60.8126 11.7324C58.8676 12.6323 57.3186 13.9386 56.196 15.652L57.0325 16.2ZM61.2325 12.64L61.6583 13.5448C63.319 12.7633 65.2366 12.36 67.4325 12.36V11.36V10.36C64.9884 10.36 62.7727 10.81 60.8067 11.7352L61.2325 12.64ZM67.4325 11.36V12.36C69.6288 12.36 71.5307 12.7634 73.1615 13.5424L73.5925 12.64L74.0235 11.7376C72.081 10.8099 69.8762 10.36 67.4325 10.36V11.36ZM73.5925 12.64L73.1777 13.5499C74.833 14.3046 76.0943 15.3717 76.996 16.748L77.8325 16.2L78.669 15.652C77.544 13.9349 75.9786 12.6288 74.0073 11.7301L73.5925 12.64ZM77.8325 16.2L76.996 16.748C77.8925 18.1163 78.3525 19.7086 78.3525 21.56H79.3525H80.3525C80.3525 19.3581 79.7992 17.3771 78.669 15.652L77.8325 16.2ZM79.3525 21.56H78.3525C78.3525 23.4114 77.8925 25.0037 76.996 26.372L77.8325 26.92L78.669 27.468C79.7992 25.743 80.3525 23.7619 80.3525 21.56H79.3525ZM77.8325 26.92L76.996 26.372C76.0925 27.7511 74.8274 28.8337 73.1667 29.6152L73.5925 30.52L74.0183 31.4248C75.9843 30.4996 77.5459 29.1822 78.669 27.468L77.8325 26.92ZM73.5925 30.52L73.1726 29.6124C71.539 30.3683 69.6331 30.76 67.4325 30.76V31.76V32.76C69.8719 32.76 72.0727 32.325 74.0124 31.4276L73.5925 30.52ZM67.4325 27.6V28.6C69.6591 28.6 71.5387 28.0186 72.9452 26.7399L72.2725 26L71.5998 25.2601C70.6597 26.1147 69.3126 26.6 67.4325 26.6V27.6ZM72.2725 26L72.9369 26.7474C74.389 25.4566 75.0725 23.6828 75.0725 21.56H74.0725H73.0725C73.0725 23.2239 72.556 24.4101 71.6081 25.2526L72.2725 26ZM74.0725 21.56H75.0725C75.0725 19.4372 74.389 17.6634 72.9369 16.3726L72.2725 17.12L71.6081 17.8674C72.556 18.7099 73.0725 19.8961 73.0725 21.56H74.0725ZM72.2725 17.12L72.9452 16.3801C71.5387 15.1014 69.6591 14.52 67.4325 14.52V15.52V16.52C69.3126 16.52 70.6597 17.0053 71.5998 17.8599L72.2725 17.12ZM67.4325 15.52V14.52C65.2046 14.52 63.3177 15.1019 61.8881 16.3726L62.5525 17.12L63.2169 17.8674C64.1873 17.0048 65.5537 16.52 67.4325 16.52V15.52ZM62.5525 17.12L61.8798 16.3801C60.4577 17.6729 59.7925 19.4444 59.7925 21.56H60.7925H61.7925C61.7925 19.8889 62.3006 18.7004 63.2252 17.8599L62.5525 17.12ZM60.7925 21.56H59.7925C59.7925 23.6756 60.4577 25.4471 61.8798 26.7399L62.5525 26L63.2252 25.2601C62.3006 24.4196 61.7925 23.2311 61.7925 21.56H60.7925ZM62.5525 26L61.8881 26.7474C63.3177 28.0181 65.2046 28.6 67.4325 28.6V27.6V26.6C65.5537 26.6 64.1873 26.1152 63.2169 25.2526L62.5525 26ZM83.3113 31.12L82.6259 31.8482V31.8482L83.3113 31.12ZM83.3113 1.64L83.9966 2.3682V2.3682L83.3113 1.64ZM87.1513 1.64L86.4869 2.38741L86.4869 2.38741L87.1513 1.64ZM87.8713 19.32H86.8713V21.1532L88.4126 20.1608L87.8713 19.32ZM99.5513 11.8L99.0144 10.9563L99.0099 10.9592L99.5513 11.8ZM102.831 12.32L103.745 11.9139L103.739 11.8999L103.732 11.8862L102.831 12.32ZM101.911 15.32L101.389 14.4674L101.385 14.4699L101.911 15.32ZM95.7113 19.16L95.1847 18.3099L93.7928 19.1719L95.1953 20.0166L95.7113 19.16ZM100.951 23.64L100.143 24.229L100.15 24.2378L100.951 23.64ZM103.111 29.2L102.119 29.324L102.126 29.384L102.141 29.4425L103.111 29.2ZM102.551 31.24L103.232 31.9728L103.234 31.9711L102.551 31.24ZM99.1513 31.32L98.608 32.1596L98.6188 32.1666L98.6298 32.1733L99.1513 31.32ZM98.2713 30.04L99.2441 29.8084L99.2418 29.799L99.2394 29.7896L98.2713 30.04ZM96.9113 26.28L96.0168 26.7272L96.0217 26.737L96.0269 26.7468L96.9113 26.28ZM94.9913 23.8L94.3098 24.5319L94.3229 24.544L94.3363 24.5557L94.9913 23.8ZM91.8313 21.6L92.3199 20.7275L91.7775 20.4238L91.2651 20.7757L91.8313 21.6ZM87.8713 24.32L87.3051 23.4957L86.8713 23.7937V24.32H87.8713ZM87.1513 31.12L87.8156 31.8674H87.8156L87.1513 31.12ZM85.2313 31.76V30.76C84.5737 30.76 84.2103 30.5929 83.9966 30.3918L83.3113 31.12L82.6259 31.8482C83.3189 32.5004 84.2355 32.76 85.2313 32.76V31.76ZM83.3113 31.12L83.9966 30.3918C83.7836 30.1913 83.6313 29.8904 83.6313 29.36H82.6313H81.6313C81.6313 30.323 81.9323 31.1954 82.6259 31.8482L83.3113 31.12ZM82.6313 29.36H83.6313V3.4H82.6313H81.6313V29.36H82.6313ZM82.6313 3.4H83.6313C83.6313 2.86964 83.7836 2.56869 83.9966 2.3682L83.3113 1.64L82.6259 0.911798C81.9323 1.56464 81.6313 2.43703 81.6313 3.4H82.6313ZM83.3113 1.64L83.9966 2.3682C84.2103 2.16709 84.5737 2 85.2313 2V0.999998V-1.90735e-06C84.2355 -1.90735e-06 83.3189 0.259577 82.6259 0.9118L83.3113 1.64ZM85.2313 0.999998V2C85.8489 2 86.2318 2.16068 86.4869 2.38741L87.1513 1.64L87.8156 0.892591C87.1107 0.26598 86.2137 -1.90735e-06 85.2313 -1.90735e-06V0.999998ZM87.1513 1.64L86.4869 2.38741C86.7179 2.59277 86.8713 2.88778 86.8713 3.4H87.8713H88.8713C88.8713 2.41888 88.5446 1.54057 87.8156 0.89259L87.1513 1.64ZM87.8713 3.4H86.8713V19.32H87.8713H88.8713V3.4H87.8713ZM87.8713 19.32L88.4126 20.1608L100.093 12.6408L99.5513 11.8L99.0099 10.9592L87.3299 18.4792L87.8713 19.32ZM99.5513 11.8L100.088 12.6437C100.582 12.3291 100.929 12.24 101.151 12.24V11.24V10.24C100.414 10.24 99.6934 10.5243 99.0144 10.9563L99.5513 11.8ZM101.151 11.24V12.24C101.378 12.24 101.517 12.2908 101.611 12.3512C101.706 12.4129 101.821 12.5267 101.93 12.7538L102.831 12.32L103.732 11.8862C103.495 11.3933 103.156 10.9671 102.692 10.6688C102.226 10.3692 101.698 10.24 101.151 10.24V11.24ZM102.831 12.32L101.917 12.7261C102.106 13.1502 102.151 13.4016 102.151 13.52H103.151H104.151C104.151 12.9984 103.983 12.4498 103.745 11.9139L102.831 12.32ZM103.151 13.52H102.151C102.151 13.7356 102.049 14.0624 101.389 14.4674L101.911 15.32L102.434 16.1726C103.426 15.5642 104.151 14.691 104.151 13.52H103.151ZM101.911 15.32L101.385 14.4699L95.1847 18.3099L95.7113 19.16L96.2378 20.0101L102.438 16.1701L101.911 15.32ZM95.7113 19.16L95.1953 20.0166C97.4709 21.3871 99.1001 22.7979 100.143 24.229L100.951 23.64L101.759 23.051C100.509 21.3355 98.645 19.7595 96.2272 18.3034L95.7113 19.16ZM100.951 23.64L100.15 24.2378C101.21 25.6594 101.872 27.3456 102.119 29.324L103.111 29.2L104.104 29.076C103.818 26.7877 103.039 24.7673 101.753 23.0422L100.951 23.64ZM103.111 29.2L102.141 29.4425C102.137 29.4257 102.141 29.4347 102.145 29.483C102.148 29.5282 102.151 29.5927 102.151 29.68H103.151H104.151C104.151 29.4462 104.139 29.1865 104.081 28.9575L103.111 29.2ZM103.151 29.68H102.151C102.151 30.1347 102.023 30.3651 101.869 30.5089L102.551 31.24L103.234 31.9711C103.879 31.3683 104.151 30.5586 104.151 29.68H103.151ZM102.551 31.24L101.871 30.5072C101.741 30.6282 101.485 30.76 100.951 30.76V31.76V32.76C101.805 32.76 102.615 32.5452 103.232 31.9728L102.551 31.24ZM100.951 31.76V30.76C100.365 30.76 99.9574 30.6407 99.6727 30.4667L99.1513 31.32L98.6298 32.1733C99.3051 32.586 100.098 32.76 100.951 32.76V31.76ZM99.1513 31.32L99.6945 30.4804C99.4725 30.3368 99.3221 30.1362 99.2441 29.8084L98.2713 30.04L97.2985 30.2716C97.4871 31.0638 97.9234 31.7166 98.608 32.1596L99.1513 31.32ZM98.2713 30.04L99.2394 29.7896C98.8282 28.1995 98.3512 26.8658 97.7956 25.8132L96.9113 26.28L96.0269 26.7468C96.4847 27.6142 96.9143 28.7871 97.3031 30.2904L98.2713 30.04ZM96.9113 26.28L97.8057 25.8328C97.2677 24.7569 96.5469 23.8249 95.6462 23.0443L94.9913 23.8L94.3363 24.5557C95.0356 25.1617 95.5948 25.8831 96.0168 26.7272L96.9113 26.28ZM94.9913 23.8L95.6727 23.0681C94.8213 22.2755 93.6948 21.4975 92.3199 20.7275L91.8313 21.6L91.3427 22.4725C92.6344 23.1959 93.6145 23.8845 94.3098 24.5319L94.9913 23.8ZM91.8313 21.6L91.2651 20.7757L87.3051 23.4957L87.8713 24.32L88.4374 25.1443L92.3974 22.4243L91.8313 21.6ZM87.8713 24.32H86.8713V29.36H87.8713H88.8713V24.32H87.8713ZM87.8713 29.36H86.8713C86.8713 29.8722 86.7179 30.1672 86.4869 30.3726L87.1513 31.12L87.8156 31.8674C88.5446 31.2194 88.8713 30.3411 88.8713 29.36H87.8713ZM87.1513 31.12L86.4869 30.3726C86.2318 30.5993 85.8489 30.76 85.2313 30.76V31.76V32.76C86.2137 32.76 87.1107 32.494 87.8156 31.8674L87.1513 31.12ZM107.3 8.08L106.61 8.80335L106.627 8.81938L106.644 8.83461L107.3 8.08ZM107.3 3.8L107.973 4.53994L107.975 4.53848L107.3 3.8ZM112.1 3.8L111.426 4.53848L111.443 4.55374L111.46 4.56822L112.1 3.8ZM112.1 8.08L112.757 8.83461L112.759 8.83258L112.1 8.08ZM107.82 31.12L107.135 31.8482V31.8482L107.82 31.12ZM107.82 12L107.135 11.2718V11.2718L107.82 12ZM111.66 12L112.325 11.2526V11.2526L111.66 12ZM111.66 31.12L110.996 30.3726V30.3726L111.66 31.12ZM109.7 8.88V7.88C108.901 7.88 108.351 7.66838 107.956 7.32539L107.3 8.08L106.644 8.83461C107.476 9.55829 108.526 9.88 109.7 9.88V8.88ZM107.3 8.08L107.991 7.35665C107.62 7.00245 107.42 6.55254 107.42 5.92H106.42H105.42C105.42 7.04746 105.808 8.03754 106.61 8.80335L107.3 8.08ZM106.42 5.92H107.42C107.42 5.28728 107.619 4.86175 107.973 4.53994L107.3 3.8L106.628 3.06006C105.808 3.80492 105.42 4.79272 105.42 5.92H106.42ZM107.3 3.8L107.975 4.53848C108.37 4.17746 108.913 3.96 109.7 3.96V2.96V1.96C108.514 1.96 107.457 2.30254 106.626 3.06152L107.3 3.8ZM109.7 2.96V3.96C110.487 3.96 111.031 4.17746 111.426 4.53848L112.1 3.8L112.775 3.06152C111.943 2.30254 110.887 1.96 109.7 1.96V2.96ZM112.1 3.8L111.46 4.56822C111.858 4.89964 112.06 5.31764 112.06 5.92H113.06H114.06C114.06 4.76236 113.623 3.76703 112.741 3.03178L112.1 3.8ZM113.06 5.92H112.06C112.06 6.52309 111.856 6.96473 111.442 7.32742L112.1 8.08L112.759 8.83258C113.624 8.07527 114.06 7.0769 114.06 5.92H113.06ZM112.1 8.08L111.444 7.32539C111.05 7.66838 110.5 7.88 109.7 7.88V8.88V9.88C110.874 9.88 111.924 9.55829 112.757 8.83461L112.1 8.08ZM109.74 31.76V30.76C109.083 30.76 108.719 30.5929 108.506 30.3918L107.82 31.12L107.135 31.8482C107.828 32.5004 108.745 32.76 109.74 32.76V31.76ZM107.82 31.12L108.506 30.3918C108.293 30.1913 108.14 29.8904 108.14 29.36H107.14H106.14C106.14 30.323 106.441 31.1954 107.135 31.8482L107.82 31.12ZM107.14 29.36H108.14V13.76H107.14H106.14V29.36H107.14ZM107.14 13.76H108.14C108.14 13.2296 108.293 12.9287 108.506 12.7282L107.82 12L107.135 11.2718C106.441 11.9246 106.14 12.797 106.14 13.76H107.14ZM107.82 12L108.506 12.7282C108.719 12.5271 109.083 12.36 109.74 12.36V11.36V10.36C108.745 10.36 107.828 10.6196 107.135 11.2718L107.82 12ZM109.74 11.36V12.36C110.358 12.36 110.741 12.5207 110.996 12.7474L111.66 12L112.325 11.2526C111.62 10.626 110.723 10.36 109.74 10.36V11.36ZM111.66 12L110.996 12.7474C111.227 12.9528 111.38 13.2478 111.38 13.76H112.38H113.38C113.38 12.7789 113.054 11.9006 112.325 11.2526L111.66 12ZM112.38 13.76H111.38V29.36H112.38H113.38V13.76H112.38ZM112.38 29.36H111.38C111.38 29.8722 111.227 30.1672 110.996 30.3726L111.66 31.12L112.325 31.8674C113.054 31.2194 113.38 30.3411 113.38 29.36H112.38ZM111.66 31.12L110.996 30.3726C110.741 30.5993 110.358 30.76 109.74 30.76V31.76V32.76C110.723 32.76 111.62 32.494 112.325 31.8674L111.66 31.12ZM117.413 31.12L116.727 31.8482V31.8482L117.413 31.12ZM117.373 12L118.057 12.7295L118.058 12.7282L117.373 12ZM121.133 12L121.818 11.2718V11.2718L121.133 12ZM121.813 14.92H120.813V17.7771L122.595 15.5436L121.813 14.92ZM135.613 13.8L134.87 14.4696L134.876 14.476L134.882 14.4823L135.613 13.8ZM137.133 31.12L137.797 31.8674H137.797L137.133 31.12ZM133.293 31.12L132.607 31.8482V31.8482L133.293 31.12ZM123.653 17.32L124.376 18.0105L124.384 18.0023L123.653 17.32ZM121.253 31.12L121.917 31.8674H121.917L121.253 31.12ZM119.333 31.76V30.76C118.675 30.76 118.312 30.5929 118.098 30.3918L117.413 31.12L116.727 31.8482C117.42 32.5004 118.337 32.76 119.333 32.76V31.76ZM117.413 31.12L118.098 30.3918C117.885 30.1913 117.733 29.8904 117.733 29.36H116.733H115.733C115.733 30.323 116.034 31.1954 116.727 31.8482L117.413 31.12ZM116.733 29.36H117.733V13.76H116.733H115.733V29.36H116.733ZM116.733 13.76H117.733C117.733 13.1698 117.891 12.885 118.057 12.7295L117.373 12L116.689 11.2705C116.001 11.915 115.733 12.8035 115.733 13.76H116.733ZM117.373 12L118.058 12.7282C118.278 12.5217 118.632 12.36 119.253 12.36V11.36V10.36C118.273 10.36 117.375 10.625 116.687 11.2718L117.373 12ZM119.253 11.36V12.36C119.873 12.36 120.228 12.5217 120.447 12.7282L121.133 12L121.818 11.2718C121.131 10.625 120.232 10.36 119.253 10.36V11.36ZM121.133 12L120.447 12.7282C120.66 12.9287 120.813 13.2296 120.813 13.76H121.813H122.813C122.813 12.797 122.512 11.9246 121.818 11.2718L121.133 12ZM121.813 13.76H120.813V14.92H121.813H122.813V13.76H121.813ZM121.813 14.92L122.595 15.5436C124.281 13.4292 126.569 12.36 129.573 12.36V11.36V10.36C126.017 10.36 123.131 11.6641 121.031 14.2964L121.813 14.92ZM129.573 11.36V12.36C131.902 12.36 133.626 13.0893 134.87 14.4696L135.613 13.8L136.356 13.1304C134.667 11.2573 132.364 10.36 129.573 10.36V11.36ZM135.613 13.8L134.882 14.4823C136.16 15.8514 136.853 17.7695 136.853 20.36H137.853H138.853C138.853 17.4038 138.053 14.9486 136.344 13.1177L135.613 13.8ZM137.853 20.36H136.853V29.36H137.853H138.853V20.36H137.853ZM137.853 29.36H136.853C136.853 29.8722 136.699 30.1672 136.468 30.3726L137.133 31.12L137.797 31.8674C138.526 31.2194 138.853 30.3411 138.853 29.36H137.853ZM137.133 31.12L136.468 30.3726C136.213 30.5993 135.83 30.76 135.213 30.76V31.76V32.76C136.195 32.76 137.092 32.494 137.797 31.8674L137.133 31.12ZM135.213 31.76V30.76C134.555 30.76 134.192 30.5929 133.978 30.3918L133.293 31.12L132.607 31.8482C133.3 32.5004 134.217 32.76 135.213 32.76V31.76ZM133.293 31.12L133.978 30.3918C133.765 30.1913 133.613 29.8904 133.613 29.36H132.613H131.613C131.613 30.323 131.914 31.1954 132.607 31.8482L133.293 31.12ZM132.613 29.36H133.613V20.36H132.613H131.613V29.36H132.613ZM132.613 20.36H133.613C133.613 18.6812 133.199 17.2314 132.245 16.1415L131.493 16.8L130.74 17.4585C131.28 18.0753 131.613 18.9988 131.613 20.36H132.613ZM131.493 16.8L132.245 16.1415C131.275 15.0324 129.939 14.52 128.373 14.52V15.52V16.52C129.474 16.52 130.217 16.8609 130.74 17.4585L131.493 16.8ZM128.373 15.52V14.52C126.139 14.52 124.274 15.1891 122.922 16.6377L123.653 17.32L124.384 18.0023C125.272 17.0509 126.554 16.52 128.373 16.52V15.52ZM123.653 17.32L122.929 16.6295C121.582 18.0416 120.973 19.9731 120.973 22.28H121.973H122.973C122.973 20.3203 123.484 18.945 124.376 18.0105L123.653 17.32ZM121.973 22.28H120.973V29.36H121.973H122.973V22.28H121.973ZM121.973 29.36H120.973C120.973 29.8722 120.819 30.1672 120.588 30.3726L121.253 31.12L121.917 31.8674C122.646 31.2194 122.973 30.3411 122.973 29.36H121.973ZM121.253 31.12L120.588 30.3726C120.333 30.5993 119.95 30.76 119.333 30.76V31.76V32.76C120.315 32.76 121.212 32.494 121.917 31.8674L121.253 31.12ZM147.102 40.44L146.769 41.3827L146.773 41.3843L147.102 40.44ZM143.022 37.92L143.756 37.241L143.753 37.2377L143.022 37.92ZM143.422 34.76L142.798 33.9791L142.79 33.9854L142.782 33.9918L143.422 34.76ZM147.022 35.44L147.698 34.7028L147.694 34.699L147.022 35.44ZM149.422 36.8L149.754 35.8565L149.746 35.8539L149.738 35.8513L149.422 36.8ZM157.422 35.44L156.684 34.765V34.765L157.422 35.44ZM159.062 30.24L160.062 30.2159L160.062 30.215L159.062 30.24ZM159.022 28.64L160.022 28.615L159.956 25.9969L158.26 27.9924L159.022 28.64ZM155.822 31L155.44 30.0757L155.433 30.0788L155.822 31ZM143.702 29.08L143 29.7923L143.006 29.7974L143.702 29.08ZM143.742 14.08L144.434 14.8024L144.434 14.8022L143.742 14.08ZM155.622 12.2L156.023 11.2838V11.2838L155.622 12.2ZM159.062 14.56L158.355 15.2671L160.062 16.9742V14.56H159.062ZM159.782 12L159.118 11.2526V11.2526L159.782 12ZM163.582 12L162.897 12.7282L162.919 12.7489L162.942 12.7682L163.582 12ZM162.902 35.96L162.028 35.4743L162.022 35.4851L162.902 35.96ZM158.942 39.92L158.458 39.0452L158.452 39.0484L158.942 39.92ZM157.302 26L157.975 26.7399V26.7399L157.302 26ZM157.302 17.12L156.63 17.8599H156.63L157.302 17.12ZM147.862 17.12L148.561 17.8358V17.8358L147.862 17.12ZM147.862 26L147.164 26.7158V26.7158L147.862 26ZM152.862 41.36V40.36C150.881 40.36 149.074 40.0681 147.431 39.4957L147.102 40.44L146.773 41.3843C148.65 42.0385 150.683 42.36 152.862 42.36V41.36ZM147.102 40.44L147.436 39.4973C145.816 38.924 144.607 38.1611 143.756 37.241L143.022 37.92L142.288 38.599C143.41 39.8122 144.922 40.7293 146.769 41.3827L147.102 40.44ZM143.022 37.92L143.753 37.2377C143.538 37.0067 143.462 36.7921 143.462 36.56H142.462H141.462C141.462 37.3412 141.76 38.0333 142.291 38.6023L143.022 37.92ZM142.462 36.56H143.462C143.462 36.2623 143.588 35.9232 144.062 35.5282L143.422 34.76L142.782 33.9918C141.976 34.6635 141.462 35.5244 141.462 36.56H142.462ZM143.422 34.76L144.047 35.5409C144.294 35.3433 144.505 35.28 144.702 35.28V34.28V33.28C143.992 33.28 143.35 33.5367 142.798 33.9791L143.422 34.76ZM144.702 34.28V35.28C145.028 35.28 145.568 35.4715 146.351 36.181L147.022 35.44L147.694 34.699C146.77 33.8619 145.763 33.28 144.702 33.28V34.28ZM147.022 35.44L146.346 36.1772C147.106 36.8733 148.034 37.3915 149.106 37.7487L149.422 36.8L149.738 35.8513C148.89 35.5685 148.219 35.1801 147.698 34.7028L147.022 35.44ZM149.422 36.8L149.091 37.7435C150.191 38.1301 151.357 38.32 152.582 38.32V37.32V36.32C151.567 36.32 150.627 36.1632 149.754 35.8565L149.422 36.8ZM152.582 37.32V38.32C154.875 38.32 156.782 37.6207 158.16 36.115L157.422 35.44L156.684 34.765C155.769 35.7659 154.45 36.32 152.582 36.32V37.32ZM157.422 35.44L158.16 36.115C159.529 34.6188 160.12 32.6063 160.062 30.2159L159.062 30.24L158.062 30.2641C158.112 32.3003 157.609 33.7546 156.684 34.765L157.422 35.44ZM159.062 30.24L160.062 30.215L160.022 28.615L159.022 28.64L158.023 28.665L158.063 30.265L159.062 30.24ZM159.022 28.64L158.26 27.9924C157.451 28.9447 156.512 29.6331 155.44 30.0757L155.822 31L156.204 31.9243C157.586 31.3536 158.78 30.4686 159.784 29.2876L159.022 28.64ZM155.822 31L155.433 30.0788C154.391 30.5186 153.053 30.76 151.382 30.76V31.76V32.76C153.232 32.76 154.853 32.4947 156.211 31.9212L155.822 31ZM151.382 31.76V30.76C148.287 30.76 146.004 29.9214 144.399 28.3626L143.702 29.08L143.006 29.7974C145.08 31.812 147.918 32.76 151.382 32.76V31.76ZM143.702 29.08L144.404 28.3678C142.798 26.7852 141.942 24.5601 141.942 21.56H140.942H139.942C139.942 24.9599 140.926 27.7482 143 29.7923L143.702 29.08ZM140.942 21.56H141.942C141.942 18.5634 142.809 16.3573 144.434 14.8024L143.742 14.08L143.051 13.3576C140.942 15.376 139.942 18.1566 139.942 21.56H140.942ZM143.742 14.08L144.434 14.8022C146.093 13.2133 148.444 12.36 151.622 12.36V11.36V10.36C148.08 10.36 145.178 11.32 143.051 13.3578L143.742 14.08ZM151.622 11.36V12.36C152.87 12.36 154.067 12.611 155.221 13.1162L155.622 12.2L156.023 11.2838C154.618 10.669 153.148 10.36 151.622 10.36V11.36ZM155.622 12.2L155.221 13.1162C156.384 13.6249 157.428 14.3396 158.355 15.2671L159.062 14.56L159.769 13.8529C158.67 12.7537 157.42 11.8951 156.023 11.2838L155.622 12.2ZM159.062 14.56H160.062V13.76H159.062H158.062V14.56H159.062ZM159.062 13.76H160.062C160.062 13.2478 160.216 12.9528 160.447 12.7474L159.782 12L159.118 11.2526C158.389 11.9006 158.062 12.7789 158.062 13.76H159.062ZM159.782 12L160.447 12.7474C160.702 12.5207 161.085 12.36 161.702 12.36V11.36V10.36C160.72 10.36 159.823 10.626 159.118 11.2526L159.782 12ZM161.702 11.36V12.36C162.323 12.36 162.677 12.5217 162.897 12.7282L163.582 12L164.268 11.2718C163.58 10.625 162.682 10.36 161.702 10.36V11.36ZM163.582 12L162.942 12.7682C163.141 12.9339 163.302 13.2064 163.302 13.76H164.302H165.302C165.302 12.7669 164.984 11.8661 164.222 11.2318L163.582 12ZM164.302 13.76H163.302V30.24H164.302H165.302V13.76H164.302ZM164.302 30.24H163.302C163.302 32.2225 162.87 33.9588 162.028 35.4744L162.902 35.96L163.776 36.4456C164.801 34.6012 165.302 32.5242 165.302 30.24H164.302ZM162.902 35.96L162.022 35.4851C161.21 36.9901 160.03 38.1742 158.458 39.0452L158.942 39.92L159.427 40.7948C161.321 39.7458 162.781 38.2899 163.782 36.4349L162.902 35.96ZM158.942 39.92L158.452 39.0484C156.922 39.909 155.071 40.36 152.862 40.36V41.36V42.36C155.347 42.36 157.549 41.851 159.432 40.7916L158.942 39.92ZM152.422 27.6V28.6C154.672 28.6 156.566 28.0206 157.975 26.7399L157.302 26L156.63 25.2601C155.692 26.1127 154.333 26.6 152.422 26.6V27.6ZM157.302 26L157.975 26.7399C159.397 25.4471 160.062 23.6756 160.062 21.56H159.062H158.062C158.062 23.2311 157.554 24.4196 156.63 25.2601L157.302 26ZM159.062 21.56H160.062C160.062 19.4444 159.397 17.6729 157.975 16.3801L157.302 17.12L156.63 17.8599C157.554 18.7004 158.062 19.8889 158.062 21.56H159.062ZM157.302 17.12L157.975 16.3801C156.566 15.0994 154.672 14.52 152.422 14.52V15.52V16.52C154.333 16.52 155.692 17.0073 156.63 17.8599L157.302 17.12ZM152.422 15.52V14.52C150.289 14.52 148.491 15.109 147.164 16.4042L147.862 17.12L148.561 17.8358C149.42 16.9977 150.662 16.52 152.422 16.52V15.52ZM147.862 17.12L147.164 16.4042C145.833 17.7021 145.222 19.4658 145.222 21.56H146.222H147.222C147.222 19.8675 147.704 18.6712 148.561 17.8358L147.862 17.12ZM146.222 21.56H145.222C145.222 23.6542 145.833 25.4179 147.164 26.7158L147.862 26L148.561 25.2842C147.704 24.4488 147.222 23.2525 147.222 21.56H146.222ZM147.862 26L147.164 26.7158C148.491 28.011 150.289 28.6 152.422 28.6V27.6V26.6C150.662 26.6 149.42 26.1223 148.561 25.2842L147.862 26Z" fill="black" mask="url(#path-1-outside-1_202_1560)"/>
</svg>
